<svg xmlns="http://www.w3.org/2000/svg" width="60.00" height="60.00" viewBox="0 0 60.00 60.00"><g transform="matrix(1 0 0 1 -1046.6298828125 -5975.0)"><g transform="matrix(1 0 0 1 1046.6298828125 5975)"><rect x="0" y="0" width="60" height="60" rx="0" fill="rgb(142,197,252)" stroke="none" stroke-width="0"/></g><g transform="matrix(1 0 0 1 1053.4686279296875 5981.83203125)"><g transform="matrix(1 0 0 1 -1.895760416984558 0)"><path d="M 37.38262557983398 26.47908401489258 L 12.73826313018799 26.47908401489258 C 11.22811126708984 26.47908401489258 10 25.25097465515137 10 23.74082183837891 L 10 6.738265037536621 C 10 5.228112697601318 11.22811126708984 4.000001907348633 12.73826313018799 4.000001907348633 L 37.38262557983398 4.000001907348633 C 38.89278030395508 4.000001907348633 40.12088775634766 5.228113174438477 40.12088775634766 6.738265037536621 L 40.12088775634766 23.74082183837891 C 40.12088775634766 25.25097465515137 38.89278030395508 26.47908401489258 37.38262557983398 26.47908401489258 Z M 12.73826313018799 5.369132995605469 C 11.98318672180176 5.369132995605469 11.36913204193115 5.983188629150391 11.36913204193115 6.738265037536621 L 11.36913204193115 23.74082183837891 C 11.36913204193115 24.49589729309082 11.98318672180176 25.10995292663574 12.73826313018799 25.10995292663574 L 37.38262557983398 25.10995292663574 C 38.13770294189453 25.10995292663574 38.75175857543945 24.49589729309082 38.75175857543945 23.74082183837891 L 38.75175857543945 6.738265037536621 C 38.75175857543945 5.983188629150391 38.13770294189453 5.369132995605469 37.38262557983398 5.369132995605469 L 12.73826313018799 5.369132995605469 Z" fill="rgb(88,78,100)" stroke="rgb(88,78,100)" stroke-width="1"/></g><g transform="matrix(1 0 0 1 10.715856552124023 6.763591289520264)"><g transform="matrix(1 0 0 1 -13.814998626708984 -8.036998748779297)"><path d="M 28.51878547668457 24.9888973236084 L 14.4995641708374 24.9888973236084 C 14.12168407440186 24.9888973236084 13.81499862670898 24.68289756774902 13.81499862670898 24.3043327331543 L 13.81499862670898 8.721564292907715 C 13.81499862670898 8.343000411987305 14.12168407440186 8.036998748779297 14.4995641708374 8.036998748779297 L 28.51878547668457 8.036998748779297 C 28.8973503112793 8.036998748779297 29.20335006713867 8.342999458312988 29.20335006713867 8.721564292907715 L 29.20335006713867 24.3043327331543 C 29.20335006713867 24.68289756774902 28.8973503112793 24.9888973236084 28.51878547668457 24.9888973236084 Z M 15.18412971496582 23.61976623535156 L 27.83421897888184 23.61976623535156 L 27.83421897888184 9.406129837036133 L 15.18412971496582 9.406129837036133 L 15.18412971496582 23.61976623535156 Z" fill="rgb(88,78,100)" stroke="rgb(88,78,100)" stroke-width="1"/></g><g transform="matrix(1 0 0 1 -15.015227317810059 -9.600922584533691)"><path d="M 21.3953800201416 23.16011619567871 L 21.37552833557129 23.16011619567871 C 21.05309677124023 23.15053176879883 20.78132438659668 22.91777992248535 20.72245216369629 22.60151100158691 L 19.93314743041992 18.37157821655273 L 19.80924224853516 19.20606422424316 C 19.75926780700684 19.54150009155273 19.47106742858887 19.79068374633789 19.13220596313477 19.79068374633789 L 18.30456733703613 19.79068374633789 C 17.92668724060059 19.79068374633789 17.6200008392334 19.48468208312988 17.6200008392334 19.10611724853516 C 17.6200008392334 18.72755432128906 17.92668724060059 18.42155075073242 18.30456733703613 18.42155075073242 L 18.54211044311523 18.42155075073242 L 19.17875671386719 14.1238489151001 C 19.22804641723633 13.79320335388184 19.50871849060059 13.54607486724854 19.84347152709961 13.53922939300537 C 20.19602203369141 13.53717517852783 20.46779441833496 13.76992797851562 20.52872085571289 14.09783458709717 L 21.48916625976562 19.24371528625488 L 21.56378364562988 18.94182205200195 C 21.63908576965332 18.63650512695312 21.91359519958496 18.42155075073242 22.22849655151367 18.42155075073242 L 23.1102180480957 18.42155075073242 L 24.24933433532715 13.52416896820068 C 24.32121276855469 13.21406078338623 24.59846305847168 12.99499988555908 24.91610145568848 12.99499988555908 L 24.92362976074219 12.99499988555908 C 25.24469184875488 12.99842357635498 25.52057266235352 13.22432994842529 25.58629035949707 13.53854560852051 L 26.61245536804199 18.42223739624023 L 27.11561012268066 18.42223739624023 C 27.49349021911621 18.42223739624023 27.8001766204834 18.72823715209961 27.8001766204834 19.10680389404297 C 27.8001766204834 19.48536682128906 27.49349021911621 19.79136848449707 27.11561012268066 19.79136848449707 L 26.05658721923828 19.79136848449707 C 25.7327880859375 19.79136848449707 25.4534854888916 19.56477737426758 25.38639831542969 19.24782180786133 L 24.88187217712402 16.8470516204834 L 24.32052993774414 19.26151466369629 C 24.24864959716797 19.57162094116211 23.97208404541016 19.79068374633789 23.65376281738281 19.79068374633789 L 22.76451301574707 19.79068374633789 L 22.0607795715332 22.64053153991699 C 21.98547554016113 22.946533203125 21.71028137207031 23.16080093383789 21.39675140380859 23.16080093383789 Z" fill="rgb(88,78,100)" stroke="rgb(88,78,100)" stroke-width="1"/></g><g transform="matrix(1 0 0 1 16.832101821899414 0.0006854953244328499)"><g transform="matrix(1 0 0 1 -38.40299987792969 -8.038000106811523)"><path d="M 45.78398895263672 16.38354110717773 L 39.08756637573242 16.38354110717773 C 38.70899963378906 16.38354110717773 38.40299987792969 16.07753944396973 38.40299987792969 15.698974609375 L 38.40299987792969 8.722566604614258 C 38.40299987792969 8.344001770019531 38.70899963378906 8.038000106811523 39.08756637573242 8.038000106811523 L 45.78398513793945 8.038000106811523 C 46.16255187988281 8.038000106811523 46.46855163574219 8.344000816345215 46.46855163574219 8.722566604614258 L 46.46855163574219 15.698974609375 C 46.46855163574219 16.07753944396973 46.16255187988281 16.38354110717773 45.78398513793945 16.38354110717773 Z M 39.77213287353516 15.01440906524658 L 45.09942245483398 15.01440906524658 L 45.09942245483398 9.407131195068359 L 39.77213287353516 9.407131195068359 L 39.77213287353516 15.01440906524658 Z" fill="rgb(88,78,100)" stroke="rgb(88,78,100)" stroke-width="1"/></g><g transform="matrix(1 0 0 1 -38.40299987792969 -12.65185832977295)"><path d="M 45.78398895263672 24.03413391113281 L 39.08756637573242 24.03413391113281 C 38.70899963378906 24.03413391113281 38.40299987792969 23.7281322479248 38.40299987792969 23.34956741333008 C 38.40299987792969 22.97100257873535 38.70899963378906 22.66500091552734 39.08756637573242 22.66500091552734 L 45.78398513793945 22.66500091552734 C 46.16255187988281 22.66500091552734 46.46855163574219 22.97100257873535 46.46855163574219 23.34956741333008 C 46.46855163574219 23.7281322479248 46.16255187988281 24.03413391113281 45.78398513793945 24.03413391113281 Z" fill="rgb(88,78,100)" stroke="rgb(88,78,100)" stroke-width="1"/></g><g transform="matrix(1 0 0 1 -38.40299987792969 -13.934731483459473)"><path d="M 45.78398895263672 28.10113143920898 L 39.08756637573242 28.10113143920898 C 38.70899963378906 28.10113143920898 38.40299987792969 27.79513168334961 38.40299987792969 27.41656494140625 C 38.40299987792969 27.03800201416016 38.70899963378906 26.73200225830078 39.08756637573242 26.73200225830078 L 45.78398513793945 26.73200225830078 C 46.16255187988281 26.73200225830078 46.46855163574219 27.03800201416016 46.46855163574219 27.41656494140625 C 46.46855163574219 27.79513168334961 46.16255187988281 28.10113143920898 45.78398513793945 28.10113143920898 Z" fill="rgb(88,78,100)" stroke="rgb(88,78,100)" stroke-width="1"/></g><g transform="matrix(1 0 0 1 -38.40299987792969 -15.217916488647461)"><path d="M 45.78398895263672 32.16912841796875 L 39.08756637573242 32.16912841796875 C 38.70899963378906 32.16912841796875 38.40299987792969 31.86313056945801 38.40299987792969 31.48456573486328 C 38.40299987792969 31.10599899291992 38.70899963378906 30.79999923706055 39.08756637573242 30.79999923706055 L 45.78398513793945 30.79999923706055 C 46.16255187988281 30.79999923706055 46.46855163574219 31.10600090026855 46.46855163574219 31.48456573486328 C 46.46855163574219 31.86312866210938 46.16255187988281 32.16912841796875 45.78398513793945 32.16912841796875 Z" fill="rgb(88,78,100)" stroke="rgb(88,78,100)" stroke-width="1"/></g></g></g><g transform="matrix(1 0 0 1 3.9900002479553223 12.180559158325195)"><g transform="matrix(1 0 0 1 -3.9900002479553223 -15.94999885559082)"><path d="M 9.767734527587891 40.68609619140625 L 6.728262901306152 40.68609619140625 C 5.218111038208008 40.68609619140625 3.990000247955322 39.45798492431641 3.990000247955322 37.94783401489258 L 3.990000247955322 18.68826293945312 C 3.990000247955322 17.17811012268066 5.218111038208008 15.94999885559082 6.728262901306152 15.94999885559082 L 8.788805961608887 15.94999885559082 C 9.166686058044434 15.94999885559082 9.473371505737305 16.25600051879883 9.473371505737305 16.63456344604492 C 9.473371505737305 17.01313018798828 9.166686058044434 17.31912994384766 8.788805961608887 17.31912994384766 L 6.728262424468994 17.31912994384766 C 5.973186492919922 17.31912994384766 5.359131336212158 17.93318557739258 5.359131336212158 18.68826293945312 L 5.359131336212158 37.94783401489258 C 5.359131336212158 38.70290756225586 5.973186492919922 39.31696319580078 6.728262424468994 39.31696319580078 L 9.767734527587891 39.31696319580078 C 10.14561462402344 39.31696319580078 10.45230007171631 39.62296295166016 10.45230007171631 40.00152969360352 C 10.45230007171631 40.38009643554688 10.14561462402344 40.68609619140625 9.767734527587891 40.68609619140625 Z" fill="rgb(88,78,100)" stroke="rgb(88,78,100)" stroke-width="1"/></g><g transform="matrix(1 0 0 1 5.095906734466553 17.94725799560547)"><g transform="matrix(1 0 0 1 -11.434000015258789 -42.16699981689453)"><path d="M 15.86930084228516 54.37486267089844 L 14.17226219177246 54.37486267089844 C 12.66211032867432 54.37486267089844 11.43400001525879 53.14675140380859 11.43400001525879 51.6365966796875 L 11.43400001525879 44.90526580810547 C 11.43400001525879 43.39511108398438 12.66211032867432 42.16699981689453 14.17226219177246 42.16699981689453 L 15.86930084228516 42.16699981689453 C 16.2471809387207 42.16699981689453 16.55386734008789 42.47299957275391 16.55386734008789 42.85156631469727 L 16.55386734008789 44.67935562133789 C 16.55386734008789 45.05792236328125 16.2471809387207 45.36392211914062 15.86930084228516 45.36392211914062 C 15.49142074584961 45.36392211914062 15.18473529815674 45.05792236328125 15.18473529815674 44.67935562133789 L 15.18473529815674 43.5361328125 L 14.17226219177246 43.5361328125 C 13.41718673706055 43.5361328125 12.80313110351562 44.15018463134766 12.80313110351562 44.90526580810547 L 12.80313110351562 51.6365966796875 C 12.80313110351562 52.39167022705078 13.41718673706055 53.00572967529297 14.17226219177246 53.00572967529297 L 15.18473529815674 53.00572967529297 L 15.18473529815674 51.86250305175781 C 15.18473529815674 51.48394012451172 15.49142074584961 51.17794036865234 15.86930084228516 51.17794036865234 C 16.2471809387207 51.17794036865234 16.55386734008789 51.48394012451172 16.55386734008789 51.86250305175781 L 16.55386734008789 53.69029235839844 C 16.55386734008789 54.06886291503906 16.2471809387207 54.37486267089844 15.86930084228516 54.37486267089844 Z" fill="rgb(88,78,100)" stroke="rgb(88,78,100)" stroke-width="1"/></g><g transform="matrix(1 0 0 1 -13.162264823913574 -43.00920867919922)"><path d="M 19.74778747558594 53.3892822265625 L 17.59756660461426 53.3892822265625 C 17.21968650817871 53.3892822265625 16.91300010681152 53.08328247070312 16.91300010681152 52.70471572875977 L 16.91300010681152 45.52156829833984 C 16.91300010681152 45.14300155639648 17.21968650817871 44.83700180053711 17.59756660461426 44.83700180053711 L 19.74778747558594 44.83700180053711 C 20.88005828857422 44.83700180053711 21.80148506164551 45.75842666625977 21.80148506164551 46.89070129394531 L 21.80148506164551 51.33558654785156 C 21.80148506164551 52.46785736083984 20.88005828857422 53.3892822265625 19.74778747558594 53.3892822265625 Z M 18.28213119506836 52.02014923095703 L 19.74778747558594 52.02014923095703 C 20.1249828338623 52.02014923095703 20.43235397338867 51.71346282958984 20.43235397338867 51.33558654785156 L 20.43235397338867 46.89070129394531 C 20.43235397338867 46.51282119750977 20.1249828338623 46.20613479614258 19.74778747558594 46.20613479614258 L 18.28213119506836 46.20613479614258 L 18.28213119506836 52.02014923095703 Z" fill="rgb(88,78,100)" stroke="rgb(88,78,100)" stroke-width="1"/></g></g></g><g transform="matrix(1 0 0 1 28.59671401977539 12.180559158325195)"><g transform="matrix(1 0 0 1 -43.28649139404297 -15.94999885559082)"><path d="M 54.28403854370117 40.68609619140625 L 51.24456787109375 40.68609619140625 C 50.86600112915039 40.68609619140625 50.56000137329102 40.38009643554688 50.56000137329102 40.00152969360352 C 50.56000137329102 39.62296295166016 50.86600112915039 39.31696319580078 51.24456787109375 39.31696319580078 L 54.28403854370117 39.31696319580078 C 55.03911209106445 39.31696319580078 55.65316772460938 38.70290756225586 55.65316772460938 37.94783401489258 L 55.65316772460938 18.68826293945312 C 55.65316772460938 17.93318557739258 55.03911209106445 17.31912994384766 54.28403854370117 17.31912994384766 L 52.22349548339844 17.31912994384766 C 51.84492874145508 17.31912994384766 51.5389289855957 17.01313018798828 51.5389289855957 16.63456344604492 C 51.5389289855957 16.25600051879883 51.84492874145508 15.94999885559082 52.22349548339844 15.94999885559082 L 54.28403854370117 15.94999885559082 C 55.794189453125 15.94999885559082 57.02230072021484 17.17811012268066 57.02230072021484 18.68826293945312 L 57.02230072021484 37.94783401489258 C 57.02230072021484 39.45798492431641 55.794189453125 40.68609619140625 54.28403854370117 40.68609619140625 Z" fill="rgb(88,78,100)" stroke="rgb(88,78,100)" stroke-width="1"/></g><g transform="matrix(1 0 0 1 0 17.94725799560547)"><g transform="matrix(1 0 0 1 -41.55696487426758 -42.16699981689453)"><path d="M 47.45860290527344 54.37486267089844 L 45.76156616210938 54.37486267089844 C 45.38299942016602 54.37486267089844 45.07699966430664 54.06886291503906 45.07699966430664 53.69029235839844 L 45.07699966430664 51.86250305175781 C 45.07699966430664 51.48394012451172 45.38299942016602 51.17794036865234 45.76156616210938 51.17794036865234 C 46.14012908935547 51.17794036865234 46.44613265991211 51.48394012451172 46.44613265991211 51.86250305175781 L 46.44613265991211 53.00572967529297 L 47.45860290527344 53.00572967529297 C 48.21368026733398 53.00572967529297 48.82773590087891 52.39167022705078 48.82773590087891 51.6365966796875 L 48.82773590087891 44.90526580810547 C 48.82773590087891 44.15018463134766 48.21368026733398 43.5361328125 47.45860290527344 43.5361328125 L 46.44613265991211 43.5361328125 L 46.44613265991211 44.67935562133789 C 46.44613265991211 45.05792236328125 46.14012908935547 45.36392211914062 45.76156616210938 45.36392211914062 C 45.38299942016602 45.36392211914062 45.07699966430664 45.05792236328125 45.07699966430664 44.67935562133789 L 45.07699966430664 42.85156631469727 C 45.07699966430664 42.47299957275391 45.38299942016602 42.16699981689453 45.76156616210938 42.16699981689453 L 47.45860290527344 42.16699981689453 C 48.96875762939453 42.16699981689453 50.19686508178711 43.39511108398438 50.19686508178711 44.90526580810547 L 50.19686508178711 51.6365966796875 C 50.19686508178711 53.14675140380859 48.96875762939453 54.37486267089844 47.45860290527344 54.37486267089844 Z" fill="rgb(88,78,100)" stroke="rgb(88,78,100)" stroke-width="1"/></g><g transform="matrix(1 0 0 1 -39.935001373291016 -43.00920867919922)"><path d="M 44.13960266113281 53.3892822265625 L 41.98870086669922 53.3892822265625 C 40.85642623901367 53.3892822265625 39.93500137329102 52.46785736083984 39.93500137329102 51.33558654785156 L 39.93500137329102 46.89070129394531 C 39.93500137329102 45.75842666625977 40.85642623901367 44.83700180053711 41.98870086669922 44.83700180053711 L 44.13960266113281 44.83700180053711 C 44.51816940307617 44.83700180053711 44.82416915893555 45.14300155639648 44.82416915893555 45.52156829833984 L 44.82416915893555 52.70471572875977 C 44.82416915893555 53.08328247070312 44.51816940307617 53.3892822265625 44.13960266113281 53.3892822265625 Z M 41.98870086669922 46.20613479614258 C 41.61082077026367 46.20613479614258 41.30413436889648 46.51282119750977 41.30413436889648 46.89070129394531 L 41.30413436889648 51.33558654785156 C 41.30413436889648 51.71346282958984 41.61082077026367 52.02014923095703 41.98870086669922 52.02014923095703 L 43.45503616333008 52.02014923095703 L 43.45503616333008 46.20613479614258 L 41.98870086669922 46.20613479614258 Z" fill="rgb(88,78,100)" stroke="rgb(88,78,100)" stroke-width="1"/></g></g></g><g transform="matrix(1 0 0 1 -6.805813312530518 -13.205801010131836)"><path d="M 30.04511642456055 54.16481781005859 C 29.98966217041016 54.16481781005859 29.93352890014648 54.15797424316406 29.87739562988281 54.14427947998047 C 29.57344818115234 54.06761169433594 29.36054992675781 53.79378509521484 29.36054992675781 53.48024749755859 L 29.36054992675781 48.38639831542969 L 28.0626106262207 49.88559722900391 C 27.93254470825195 50.03620147705078 27.74360656738281 50.12245178222656 27.54508209228516 50.12245178222656 L 26.25056457519531 50.12245178222656 C 25.87268447875977 50.12245178222656 25.56600189208984 49.81645202636719 25.56600189208984 49.43788909912109 C 25.56600189208984 49.059326171875 25.87268447875977 48.75332641601562 26.25056457519531 48.75332641601562 L 27.23223495483398 48.75332641601562 L 29.52758407592773 46.10131454467773 C 29.71515274047852 45.88567733764648 30.01773071289062 45.8096923828125 30.28402709960938 45.9075813293457 C 30.55237579345703 46.00753021240234 30.72967910766602 46.26355743408203 30.72967910766602 46.54970550537109 L 30.72967910766602 50.76937103271484 L 31.62303924560547 49.1134033203125 C 31.74215316772461 48.89228820800781 31.97422027587891 48.75400543212891 32.22545623779297 48.75400543212891 L 33.83966445922852 48.75400543212891 C 34.21823120117188 48.75400543212891 34.52423095703125 49.06000518798828 34.52423095703125 49.43857574462891 C 34.52423095703125 49.817138671875 34.21823120117188 50.12313842773438 33.83966445922852 50.12313842773438 L 32.63345718383789 50.12313842773438 L 30.64753341674805 53.80609893798828 C 30.52568054199219 54.03132629394531 30.29224395751953 54.16549682617188 30.04511642456055 54.16549682617188 Z" fill="rgb(88,78,100)" stroke="rgb(88,78,100)" stroke-width="1"/></g></g></g></svg>