<svg xmlns="http://www.w3.org/2000/svg" width="128" height="128" viewBox="0 0 128 128">
  <g id="Grupo_1181657" data-name="Grupo 1181657" transform="translate(-72.746 -7992)">
    <g id="Elipse_13628" data-name="Elipse 13628" transform="translate(72.746 7992)" fill="#f6f0e8" stroke="#ffc0ac" stroke-width="6">
      <circle cx="64" cy="64" r="64" stroke="none"/>
      <circle cx="64" cy="64" r="61" fill="none"/>
    </g>
    <g id="Grupo_1184698" data-name="Grupo 1184698" transform="translate(88.406 8010.318)">
      <g id="Grupo_1184697" data-name="Grupo 1184697" transform="translate(12.347 9.214)">
        <g id="Grupo_1184694" data-name="Grupo 1184694" transform="translate(0 0)">
          <path id="Trazado_1009157" data-name="Trazado 1009157" d="M20.6,163.063H81.14a1.479,1.479,0,0,1,1.475,1.475v36.605a1.479,1.479,0,0,1-1.475,1.475H20.6a1.479,1.479,0,0,1-1.475-1.475V164.538a1.479,1.479,0,0,1,1.475-1.475Z" transform="translate(-19.13 -140.716)" fill="#8d9ca8" fill-rule="evenodd"/>
          <path id="Trazado_1009158" data-name="Trazado 1009158" d="M144.808,163.063H170.1v39.555H144.808Z" transform="translate(-125.711 -140.716)" fill="#8192a5" fill-rule="evenodd"/>
          <path id="Trazado_1009159" data-name="Trazado 1009159" d="M47.386,224.574h2.85a1.034,1.034,0,0,1,1.033,1.033v2.85a1.035,1.035,0,0,1-1.033,1.033h-2.85a1.035,1.035,0,0,1-1.033-1.033v-2.85A1.035,1.035,0,0,1,47.386,224.574Zm7.973,15.947h2.85a1.034,1.034,0,0,1,1.033,1.033v2.85a1.034,1.034,0,0,1-1.033,1.033H55.36a1.034,1.034,0,0,1-1.033-1.033v-2.85A1.035,1.035,0,0,1,55.36,240.521Zm-7.973,0h2.85a1.034,1.034,0,0,1,1.033,1.033v2.85a1.034,1.034,0,0,1-1.033,1.033h-2.85a1.034,1.034,0,0,1-1.033-1.033v-2.85A1.034,1.034,0,0,1,47.386,240.521Zm7.973-7.973h2.85a1.034,1.034,0,0,1,1.033,1.033v2.85a1.034,1.034,0,0,1-1.033,1.033H55.36a1.034,1.034,0,0,1-1.033-1.033v-2.85A1.035,1.035,0,0,1,55.36,232.547Zm-7.973,0h2.85a1.034,1.034,0,0,1,1.033,1.033v2.85a1.034,1.034,0,0,1-1.033,1.033h-2.85a1.034,1.034,0,0,1-1.033-1.033v-2.85A1.034,1.034,0,0,1,47.386,232.547Zm7.973-7.973h2.85a1.034,1.034,0,0,1,1.033,1.033v2.85a1.035,1.035,0,0,1-1.033,1.033H55.36a1.035,1.035,0,0,1-1.033-1.033v-2.85a1.035,1.035,0,0,1,1.033-1.033Z" transform="translate(-42.217 -192.881)" fill="#d8ecfe" fill-rule="evenodd"/>
          <path id="Trazado_1009160" data-name="Trazado 1009160" d="M62.606,224.574h1.413a1.034,1.034,0,0,1,1.033,1.033v2.85a1.035,1.035,0,0,1-1.033,1.033H62.606a1.035,1.035,0,0,0,1.033-1.033v-2.85A1.035,1.035,0,0,0,62.606,224.574Zm7.973,15.947h1.413a1.034,1.034,0,0,1,1.033,1.033v2.85a1.034,1.034,0,0,1-1.033,1.033H70.579a1.034,1.034,0,0,0,1.033-1.033v-2.85A1.035,1.035,0,0,0,70.579,240.521Zm-7.973,0h1.413a1.034,1.034,0,0,1,1.033,1.033v2.85a1.034,1.034,0,0,1-1.033,1.033H62.606a1.034,1.034,0,0,0,1.033-1.033v-2.85A1.034,1.034,0,0,0,62.606,240.521Zm7.973-7.973h1.413a1.034,1.034,0,0,1,1.033,1.033v2.85a1.034,1.034,0,0,1-1.033,1.033H70.579a1.034,1.034,0,0,0,1.033-1.033v-2.85A1.035,1.035,0,0,0,70.579,232.547Zm-7.973,0h1.413a1.034,1.034,0,0,1,1.033,1.033v2.85a1.034,1.034,0,0,1-1.033,1.033H62.606a1.034,1.034,0,0,0,1.033-1.033v-2.85A1.034,1.034,0,0,0,62.606,232.547Zm7.973-7.973h1.413a1.034,1.034,0,0,1,1.033,1.033v2.85a1.034,1.034,0,0,1-1.033,1.033H70.579a1.035,1.035,0,0,0,1.033-1.033v-2.85a1.035,1.035,0,0,0-1.033-1.033Z" transform="translate(-56 -192.881)" fill="#c4e2ff" fill-rule="evenodd"/>
          <path id="Trazado_1009161" data-name="Trazado 1009161" d="M325.92,224.574h2.85a1.034,1.034,0,0,1,1.032,1.033v2.85a1.034,1.034,0,0,1-1.032,1.033h-2.85a1.035,1.035,0,0,1-1.032-1.033v-2.85A1.035,1.035,0,0,1,325.92,224.574Zm7.973,15.947h2.85a1.034,1.034,0,0,1,1.033,1.033v2.85a1.034,1.034,0,0,1-1.033,1.033h-2.85a1.034,1.034,0,0,1-1.033-1.033v-2.85A1.035,1.035,0,0,1,333.894,240.521Zm-7.973,0h2.85a1.034,1.034,0,0,1,1.032,1.033v2.85a1.034,1.034,0,0,1-1.032,1.033h-2.85a1.034,1.034,0,0,1-1.032-1.033v-2.85A1.034,1.034,0,0,1,325.92,240.521Zm7.973-7.973h2.85a1.034,1.034,0,0,1,1.033,1.033v2.85a1.034,1.034,0,0,1-1.033,1.033h-2.85a1.034,1.034,0,0,1-1.033-1.033v-2.85A1.035,1.035,0,0,1,333.894,232.547Zm-7.973,0h2.85a1.034,1.034,0,0,1,1.032,1.033v2.85a1.034,1.034,0,0,1-1.032,1.033h-2.85a1.034,1.034,0,0,1-1.032-1.033v-2.85A1.034,1.034,0,0,1,325.92,232.547Zm7.973-7.973h2.85a1.034,1.034,0,0,1,1.033,1.033v2.85a1.035,1.035,0,0,1-1.033,1.033h-2.85a1.035,1.035,0,0,1-1.033-1.033v-2.85a1.035,1.035,0,0,1,1.033-1.033Z" transform="translate(-278.428 -192.881)" fill="#d8ecfe" fill-rule="evenodd"/>
          <path id="Trazado_1009162" data-name="Trazado 1009162" d="M341.14,224.574h1.413a1.034,1.034,0,0,1,1.033,1.033v2.85a1.035,1.035,0,0,1-1.033,1.033H341.14a1.035,1.035,0,0,0,1.033-1.033v-2.85A1.035,1.035,0,0,0,341.14,224.574Zm7.973,15.947h1.413a1.034,1.034,0,0,1,1.033,1.033v2.85a1.034,1.034,0,0,1-1.033,1.033h-1.413a1.034,1.034,0,0,0,1.033-1.033v-2.85A1.034,1.034,0,0,0,349.113,240.521Zm-7.973,0h1.413a1.034,1.034,0,0,1,1.033,1.033v2.85a1.034,1.034,0,0,1-1.033,1.033H341.14a1.035,1.035,0,0,0,1.033-1.033v-2.85A1.034,1.034,0,0,0,341.14,240.521Zm7.973-7.973h1.413a1.034,1.034,0,0,1,1.033,1.033v2.85a1.034,1.034,0,0,1-1.033,1.033h-1.413a1.034,1.034,0,0,0,1.033-1.033v-2.85A1.034,1.034,0,0,0,349.113,232.547Zm-7.973,0h1.413a1.034,1.034,0,0,1,1.033,1.033v2.85a1.034,1.034,0,0,1-1.033,1.033H341.14a1.035,1.035,0,0,0,1.033-1.033v-2.85A1.034,1.034,0,0,0,341.14,232.547Zm7.973-7.973h1.413a1.034,1.034,0,0,1,1.033,1.033v2.85a1.035,1.035,0,0,1-1.033,1.033h-1.413a1.035,1.035,0,0,0,1.033-1.033v-2.85a1.035,1.035,0,0,0-1.033-1.033Z" transform="translate(-292.21 -192.881)" fill="#c4e2ff" fill-rule="evenodd"/>
          <path id="Trazado_1009163" data-name="Trazado 1009163" d="M159.872,101.3h18.212a1.479,1.479,0,0,1,1.475,1.475v47.465H158.4V102.774a1.479,1.479,0,0,1,1.475-1.475Z" transform="translate(-137.235 -88.337)" fill="#9facba" fill-rule="evenodd"/>
          <path id="Trazado_1009164" data-name="Trazado 1009164" d="M192.275,313.782v14.571h10.866V313.782a2.606,2.606,0,0,0-2.725-2.456H195A2.606,2.606,0,0,0,192.275,313.782Z" transform="translate(-165.965 -266.451)" fill="#eceff1" fill-rule="evenodd"/>
          <path id="Trazado_1009165" data-name="Trazado 1009165" d="M192.275,313.782v14.571h1.883V313.782a2.606,2.606,0,0,1,2.725-2.456H195A2.606,2.606,0,0,0,192.275,313.782Z" transform="translate(-165.965 -266.451)" fill="#d1d1d6" fill-rule="evenodd"/>
          <path id="Trazado_1009166" data-name="Trazado 1009166" d="M186.652,184.752h2.85a1.035,1.035,0,0,1,1.033,1.033v2.85a1.034,1.034,0,0,1-1.033,1.033h-2.85a1.035,1.035,0,0,1-1.033-1.033v-2.85A1.035,1.035,0,0,1,186.652,184.752Zm7.973,7.973h2.85a1.035,1.035,0,0,1,1.033,1.033v2.85a1.034,1.034,0,0,1-1.033,1.033h-2.85a1.035,1.035,0,0,1-1.033-1.033v-2.85A1.035,1.035,0,0,1,194.626,192.725Zm-7.973,0h2.85a1.035,1.035,0,0,1,1.033,1.033v2.85a1.034,1.034,0,0,1-1.033,1.033h-2.85a1.035,1.035,0,0,1-1.033-1.033v-2.85A1.035,1.035,0,0,1,186.652,192.725Zm7.973-7.973h2.85a1.035,1.035,0,0,1,1.033,1.033v2.85a1.034,1.034,0,0,1-1.033,1.033h-2.85a1.035,1.035,0,0,1-1.033-1.033v-2.85A1.035,1.035,0,0,1,194.626,184.752Z" transform="translate(-160.322 -159.11)" fill="#d8ecfe" fill-rule="evenodd"/>
          <path id="Trazado_1009167" data-name="Trazado 1009167" d="M201.873,184.752h1.413a1.035,1.035,0,0,1,1.033,1.033v2.85a1.034,1.034,0,0,1-1.033,1.033h-1.413a1.035,1.035,0,0,0,1.033-1.033v-2.85A1.035,1.035,0,0,0,201.873,184.752Zm7.973,7.973h1.413a1.035,1.035,0,0,1,1.033,1.033v2.85a1.034,1.034,0,0,1-1.033,1.033h-1.413a1.035,1.035,0,0,0,1.033-1.033v-2.85a1.034,1.034,0,0,0-1.033-1.033Zm-7.973,0h1.413a1.035,1.035,0,0,1,1.033,1.033v2.85a1.034,1.034,0,0,1-1.033,1.033h-1.413a1.035,1.035,0,0,0,1.033-1.033v-2.85A1.035,1.035,0,0,0,201.873,192.725Zm7.973-7.973h1.413a1.035,1.035,0,0,1,1.033,1.033v2.85a1.034,1.034,0,0,1-1.033,1.033h-1.413a1.035,1.035,0,0,0,1.033-1.033v-2.85a1.035,1.035,0,0,0-1.033-1.033Z" transform="translate(-174.105 -159.11)" fill="#c4e2ff" fill-rule="evenodd"/>
          <circle id="Elipse_13960" data-name="Elipse 13960" cx="11.416" cy="11.416" r="11.416" transform="translate(20.327)" fill="#fe646f"/>
          <path id="Trazado_1009168" data-name="Trazado 1009168" d="M229.182,19.347a11.416,11.416,0,0,1-9.312,19.42,11.416,11.416,0,0,0,0-22.7A11.393,11.393,0,0,1,229.182,19.347Z" transform="translate(-189.367 -16.003)" fill="#fd4755" fill-rule="evenodd"/>
          <path id="Trazado_1009169" data-name="Trazado 1009169" d="M187.073,46.3h5.884v3.869h3.869v5.885h-3.869v3.869h-5.884V56.056H183.2V50.171h3.869Z" transform="translate(-158.273 -41.697)" fill="#eceff1" fill-rule="evenodd"/>
          <path id="Trazado_1009170" data-name="Trazado 1009170" d="M187.073,46.3h1.475v3.869h-1.475Zm0,9.754v3.869h1.475V56.056Zm-2.394-5.884H183.2v5.884h1.475Z" transform="translate(-158.273 -41.697)" fill="#d1d1d6" fill-rule="evenodd"/>
        </g>
        <g id="Grupo_1184695" data-name="Grupo 1184695" transform="translate(42.323 35.711)">
          <path id="Trazado_1009171" data-name="Trazado 1009171" d="M298.839,251.016h20.687a1.139,1.139,0,0,1,.833.345l6.618,6.618a1.139,1.139,0,0,1,.345.833v28.25a1.181,1.181,0,0,1-1.179,1.179H298.839a1.181,1.181,0,0,1-1.179-1.179V252.195A1.181,1.181,0,0,1,298.839,251.016Z" transform="translate(-297.66 -251.016)" fill="#eceff1" fill-rule="evenodd"/>
          <path id="Trazado_1009172" data-name="Trazado 1009172" d="M298.839,251.016h.887v37.226h-.887a1.181,1.181,0,0,1-1.179-1.179V252.195A1.181,1.181,0,0,1,298.839,251.016Z" transform="translate(-297.66 -251.016)" fill="#d1d1d6" fill-rule="evenodd"/>
          <path id="Trazado_1009173" data-name="Trazado 1009173" d="M444.772,251.689a1.184,1.184,0,0,1,.345.243l6.618,6.618a1.183,1.183,0,0,1,.243.345h-6.617a.59.59,0,0,1-.589-.589Z" transform="translate(-422.418 -251.587)" fill="#a79ba7" fill-rule="evenodd"/>
        </g>
        <g id="Grupo_1184696" data-name="Grupo 1184696" transform="translate(51.407 43.131)">
          <circle id="Elipse_13961" data-name="Elipse 13961" cx="5.747" cy="5.747" r="5.747" transform="translate(0 0)" fill="#fe646f"/>
          <path id="Trazado_1009174" data-name="Trazado 1009174" d="M391.025,299.844a5.747,5.747,0,0,1,0,11.495,5.809,5.809,0,0,1-.76-.05,5.748,5.748,0,0,0,0-11.394A5.755,5.755,0,0,1,391.025,299.844Z" transform="translate(-385.278 -299.844)" fill="#fd4755" fill-rule="evenodd"/>
        </g>
      </g>
      <path id="Trazado_1009175" data-name="Trazado 1009175" d="M38.494,18.9h2.654a1.216,1.216,0,0,0,1.216-1.216V15.034h3.453v2.654A1.216,1.216,0,0,0,47.033,18.9h2.653v3.453H47.033a1.216,1.216,0,0,0-1.216,1.216v2.653H42.364V23.572a1.216,1.216,0,0,0-1.216-1.216H38.494Zm1.438,5.884v2.654a1.216,1.216,0,0,0,1.215,1.216h5.885a1.216,1.216,0,0,0,1.216-1.216V24.787H50.9a1.216,1.216,0,0,0,1.216-1.215V17.688A1.216,1.216,0,0,0,50.9,16.472H48.248V13.818A1.215,1.215,0,0,0,47.032,12.6H41.148a1.215,1.215,0,0,0-1.215,1.215v2.654H37.279a1.216,1.216,0,0,0-1.215,1.216v5.885a1.216,1.216,0,0,0,1.215,1.215ZM28.157,60.552H25.673V58.069h2.484Zm1.216-4.913H24.457a1.215,1.215,0,0,0-1.215,1.215v4.914a1.215,1.215,0,0,0,1.215,1.216h4.915a1.215,1.215,0,0,0,1.215-1.216V56.854A1.215,1.215,0,0,0,29.373,55.639Zm-9.189,4.913H17.7V58.069h2.484v2.483ZM21.4,55.639H16.484a1.215,1.215,0,0,0-1.215,1.215v4.914a1.215,1.215,0,0,0,1.215,1.216H21.4a1.215,1.215,0,0,0,1.215-1.216V56.854A1.215,1.215,0,0,0,21.4,55.639Zm6.758-3.059H25.673V50.1h2.484Zm1.216-4.915H24.457a1.215,1.215,0,0,0-1.215,1.216V53.8a1.215,1.215,0,0,0,1.215,1.216h4.915A1.216,1.216,0,0,0,30.588,53.8V48.88A1.216,1.216,0,0,0,29.373,47.664Zm-9.189,4.915H17.7V50.1h2.484v2.484ZM21.4,47.664H16.484a1.216,1.216,0,0,0-1.215,1.216V53.8a1.215,1.215,0,0,0,1.215,1.216H21.4A1.215,1.215,0,0,0,22.615,53.8V48.88A1.215,1.215,0,0,0,21.4,47.664Zm6.758-3.058H25.673V42.122h2.484Zm1.216-4.916H24.457a1.216,1.216,0,0,0-1.215,1.216v4.916a1.215,1.215,0,0,0,1.215,1.215h4.915a1.215,1.215,0,0,0,1.215-1.215V40.907A1.216,1.216,0,0,0,29.373,39.691Zm-9.189,4.916H17.7V42.122h2.484v2.484ZM21.4,39.691H16.484a1.216,1.216,0,0,0-1.215,1.216v4.916a1.215,1.215,0,0,0,1.215,1.215H21.4a1.215,1.215,0,0,0,1.215-1.215V40.907A1.216,1.216,0,0,0,21.4,39.691Zm27.919,6.838H46.835V44.045h2.484Zm1.216-4.915H45.619A1.215,1.215,0,0,0,44.4,42.83v4.915a1.215,1.215,0,0,0,1.216,1.215h4.915a1.215,1.215,0,0,0,1.215-1.215V42.83A1.215,1.215,0,0,0,50.534,41.614Zm-9.189,4.915H38.861V44.045h2.484Zm1.216-4.915H37.646A1.215,1.215,0,0,0,36.43,42.83v4.915a1.215,1.215,0,0,0,1.216,1.215h4.915a1.215,1.215,0,0,0,1.215-1.215V42.83A1.215,1.215,0,0,0,42.561,41.614Zm6.758-3.059H46.835V36.072h2.484Zm1.216-4.915H45.619A1.215,1.215,0,0,0,44.4,34.856v4.915a1.216,1.216,0,0,0,1.216,1.216h4.915a1.216,1.216,0,0,0,1.215-1.216V34.856A1.216,1.216,0,0,0,50.534,33.64Zm-9.189,4.915H38.861V36.072h2.484Zm1.216-4.915H37.646a1.216,1.216,0,0,0-1.216,1.216v4.915a1.216,1.216,0,0,0,1.216,1.216h4.915a1.216,1.216,0,0,0,1.215-1.216V34.856A1.216,1.216,0,0,0,42.561,33.64Zm24.5,25.666a1.216,1.216,0,0,1,0-2.431h1.227V55.647a1.216,1.216,0,0,1,2.431,0v1.228h1.227a1.216,1.216,0,1,1,0,2.431H70.717v1.228a1.216,1.216,0,1,1-2.431,0V59.307ZM69.5,53.56a4.531,4.531,0,1,0,4.531,4.531A4.537,4.537,0,0,0,69.5,53.56Zm0,11.493a6.962,6.962,0,1,0-6.963-6.962A6.97,6.97,0,0,0,69.5,65.053ZM81.15,68.438a1.216,1.216,0,0,1-1.216,1.216H64.985a1.216,1.216,0,1,1,0-2.431H79.934A1.216,1.216,0,0,1,81.15,68.438Zm-18.944,0a1.216,1.216,0,0,1-1.216,1.216H59.069a1.216,1.216,0,0,1,0-2.431H60.99A1.216,1.216,0,0,1,62.205,68.438ZM81.15,74.957a1.216,1.216,0,0,1-1.216,1.216H64.985a1.216,1.216,0,1,1,0-2.431H79.934A1.216,1.216,0,0,1,81.15,74.957Zm-18.944,0a1.216,1.216,0,0,1-1.216,1.216H59.069a1.216,1.216,0,0,1,0-2.431H60.99A1.216,1.216,0,0,1,62.205,74.957Zm-6.32,5.978H83.117V53.449h-5.5a1.807,1.807,0,0,1-1.8-1.806v-5.5H55.886ZM50.739,69.9h2.716V29.1a12.621,12.621,0,0,1-18.3.465c-.149-.148-.293-.3-.433-.455V69.9h2.717V56.544a3.818,3.818,0,0,1,3.94-3.671H46.8a3.818,3.818,0,0,1,3.94,3.671V69.9Zm-2.431,0H39.873V56.544a1.414,1.414,0,0,1,1.509-1.24H46.8a1.414,1.414,0,0,1,1.509,1.24V69.9ZM13.564,32.776V69.9h18.73V32.776ZM44.09,10.429a10.2,10.2,0,1,0,10.2,10.2A10.212,10.212,0,0,0,44.09,10.429Zm18.417,33.28H60.023V42.122h2.484Zm7.973,0H68V42.122H70.48Zm4.137-10.933H55.887V43.709h1.705v-2.8a1.216,1.216,0,0,1,1.215-1.216h4.915a1.216,1.216,0,0,1,1.216,1.216v2.8h.627v-2.8a1.216,1.216,0,0,1,1.216-1.216H71.7a1.216,1.216,0,0,1,1.215,1.216v2.8h1.705V32.776ZM78.24,47.86,81.4,51.018H78.24Zm6.607,3.169L78.229,44.41a2.341,2.341,0,0,0-1.181-.646V31.56a1.216,1.216,0,0,0-1.216-1.216H55.887V25.139a12.629,12.629,0,1,0-23.593.016v5.19H12.348a1.216,1.216,0,0,0-1.216,1.216V71.114a1.216,1.216,0,0,0,1.216,1.216H53.455v8.641a2.4,2.4,0,0,0,2.394,2.395h27.3a2.4,2.4,0,0,0,2.394-2.395V52.721a2.349,2.349,0,0,0-.7-1.693Z" transform="translate(0)" fill-rule="evenodd"/>
    </g>
  </g>
</svg>
